<svg xmlns="http://www.w3.org/2000/svg" class="svg-inline--fa fa-users fa-w-20 fa-3x" role="img" aria-hidden="true" viewBox="0 0 640 512" focusable="false" data-icon="users" data-prefix="fal"><path class="" fill="currentColor" d="M 544 224 c 44.2 0 80 -35.8 80 -80 s -35.8 -80 -80 -80 s -80 35.8 -80 80 s 35.8 80 80 80 Z m 0 -128 c 26.5 0 48 21.5 48 48 s -21.5 48 -48 48 s -48 -21.5 -48 -48 s 21.5 -48 48 -48 Z M 320 256 c 61.9 0 112 -50.1 112 -112 S 381.9 32 320 32 S 208 82.1 208 144 s 50.1 112 112 112 Z m 0 -192 c 44.1 0 80 35.9 80 80 s -35.9 80 -80 80 s -80 -35.9 -80 -80 s 35.9 -80 80 -80 Z m 244 192 h -40 c -15.2 0 -29.3 4.8 -41.1 12.9 c 9.4 6.4 17.9 13.9 25.4 22.4 c 4.9 -2.1 10.2 -3.3 15.7 -3.3 h 40 c 24.2 0 44 21.5 44 48 c 0 8.8 7.2 16 16 16 s 16 -7.2 16 -16 c 0 -44.1 -34.1 -80 -76 -80 Z M 96 224 c 44.2 0 80 -35.8 80 -80 s -35.8 -80 -80 -80 s -80 35.8 -80 80 s 35.8 80 80 80 Z m 0 -128 c 26.5 0 48 21.5 48 48 s -21.5 48 -48 48 s -48 -21.5 -48 -48 s 21.5 -48 48 -48 Z m 304.1 180 c -33.4 0 -41.7 12 -80.1 12 c -38.4 0 -46.7 -12 -80.1 -12 c -36.3 0 -71.6 16.2 -92.3 46.9 c -12.4 18.4 -19.6 40.5 -19.6 64.3 V 432 c 0 26.5 21.5 48 48 48 h 288 c 26.5 0 48 -21.5 48 -48 v -44.8 c 0 -23.8 -7.2 -45.9 -19.6 -64.3 c -20.7 -30.7 -56 -46.9 -92.3 -46.9 Z M 480 432 c 0 8.8 -7.2 16 -16 16 H 176 c -8.8 0 -16 -7.2 -16 -16 v -44.8 c 0 -16.6 4.9 -32.7 14.1 -46.4 c 13.8 -20.5 38.4 -32.8 65.7 -32.8 c 27.4 0 37.2 12 80.2 12 s 52.8 -12 80.1 -12 c 27.3 0 51.9 12.3 65.7 32.8 c 9.2 13.7 14.1 29.8 14.1 46.4 V 432 Z M 157.1 268.9 c -11.9 -8.1 -26 -12.9 -41.1 -12.9 H 76 c -41.9 0 -76 35.9 -76 80 c 0 8.8 7.2 16 16 16 s 16 -7.2 16 -16 c 0 -26.5 19.8 -48 44 -48 h 40 c 5.5 0 10.8 1.2 15.7 3.3 c 7.5 -8.5 16.1 -16 25.4 -22.4 Z" /></svg>