<svg xmlns="https://www.w3.org/2000/svg" class="svg-inline--fa fa-bullhorn fa-w-18 fa-3x" role="img" aria-hidden="true" viewBox="0 0 576 512" focusable="false" data-icon="bullhorn" data-prefix="fal"><path class="" fill="currentColor" d="M 544 184.88 V 32 c 0 -8.74 -6.98 -32 -31.99 -32 H 512 c -7.12 0 -14.19 2.38 -19.98 7.02 l -85.03 68.03 C 364.28 109.19 310.66 128 256 128 H 64 c -35.35 0 -64 28.65 -64 64 v 96 c 0 35.35 28.65 64 64 64 l -0.48 32 c 0 39.77 9.26 77.35 25.56 110.94 c 5.19 10.69 16.52 17.06 28.4 17.06 h 106.28 c 26.05 0 41.69 -29.84 25.9 -50.56 c -16.4 -21.52 -26.15 -48.36 -26.15 -77.44 c 0 -11.11 1.62 -21.79 4.41 -32 H 256 c 54.66 0 108.28 18.81 150.98 52.95 l 85.03 68.03 a 32.023 32.023 0 0 0 19.98 7.02 c 24.92 0 32 -22.78 32 -32 V 295.12 c 19.05 -11.09 32 -31.49 32 -55.12 c 0.01 -23.63 -12.94 -44.03 -31.99 -55.12 Z M 223.76 480 l -105.89 -0.03 c -14.83 -30.56 -22.35 -62.19 -22.36 -95.49 l 0.48 -32 L 96 352 h 99.33 c -2.31 10.7 -3.81 21.43 -3.81 32 c 0 35.29 11.3 68.78 32.24 96 Z M 64 320 c -17.64 0 -32 -14.36 -32 -32 v -96 c 0 -17.64 14.36 -32 32 -32 h 192 v 160 H 64 Z m 448.05 126.93 c -0.04 0.25 -0.13 0.58 -0.25 0.9 l -84.83 -67.87 C 386.99 348 338.54 328.14 288 322.13 V 157.87 c 50.54 -6.01 98.99 -25.87 138.98 -57.84 l 84.87 -67.9 c 0.03 0.03 0.06 0.05 0.08 0.05 c 0.04 0 0.06 -0.05 0.07 -0.17 l 0.05 414.92 Z" /></svg>