<svg xmlns="https://www.w3.org/2000/svg" class="svg-inline--fa fa-award fa-w-12 fa-3x" role="img" aria-hidden="true" viewBox="0 0 384 512" focusable="false" data-icon="award" data-prefix="fal"><path class="" fill="currentColor" d="M 192 95.95 c -52.93 0 -96 43.07 -96 96 s 43.07 96 96 96 s 96 -43.07 96 -96 s -43.06 -96 -96 -96 Z m 0 160 c -35.29 0 -64 -28.71 -64 -64 s 28.71 -64 64 -64 s 64 28.71 64 64 s -28.71 64 -64 64 Z m 175.63 16.38 c 14.06 -14.31 19.59 -35.33 14.47 -54.86 c -6.39 -24.2 -6.39 -20.45 0 -44.69 c 5.13 -19.52 -0.41 -40.53 -14.47 -54.86 c -17.58 -17.72 -15.57 -14.69 -21.91 -38.59 c -5.15 -19.63 -20.37 -35.08 -39.72 -40.34 c -23.3 -6.32 -20.62 -4.58 -37.75 -22.22 c -14.22 -14.42 -35.12 -20.08 -54.53 -14.82 c -23.5 6.51 -20.1 6.41 -43.47 0 c -19.25 -5.31 -40.28 0.4 -54.5 14.85 c -17.3 17.67 -14.21 15.77 -37.72 22.19 c -19.37 5.26 -34.59 20.71 -39.75 40.32 c -6.36 24.04 -4.38 20.87 -21.91 38.62 C 2.31 132.25 -3.22 153.27 1.91 172.8 c 6.39 24.17 6.39 20.42 0 44.69 c -5.13 19.52 0.41 40.53 14.47 54.86 c 17.58 17.72 15.57 14.69 21.91 38.59 c 2.01 7.64 5.91 14.36 10.62 20.38 L 1.2 448.7 c -4.31 10.57 3.51 22.04 14.79 22.04 c 0.55 0 -2.91 0.12 53.32 -2.03 L 105.56 507 c 3.22 3.4 7.42 5 11.58 5 c 6.17 0 12.23 -3.53 14.86 -9.96 l 52.45 -129.03 a 23.346 23.346 0 0 1 15.11 -0.01 L 252 502.04 c 2.62 6.43 8.69 9.96 14.86 9.96 c 4.16 0 8.36 -1.6 11.58 -5 l 36.25 -38.28 c 56.23 2.15 52.77 2.03 53.32 2.03 c 11.28 0 19.1 -11.47 14.79 -22.04 l -47.7 -117.37 c 4.71 -6.02 8.61 -12.74 10.62 -20.37 c 6.36 -24.06 4.38 -20.89 21.91 -38.64 Z M 111.72 466.95 c -22.59 -23.86 -16.56 -17.49 -29.13 -30.77 c -18.3 0.7 -9.45 0.36 -42.41 1.63 l 35.55 -87.48 c 0.79 0.26 1.47 0.75 2.28 0.97 c 21.87 5.86 20.46 4.6 31.59 15.91 c 9.94 10.14 22.79 15.57 35.96 16.5 l -33.84 83.24 Z m 232.11 -29.15 c -32.91 -1.26 -24.13 -0.92 -42.41 -1.62 c -12.56 13.27 -6.54 6.91 -29.13 30.77 l -33.9 -83.4 c 13.21 -0.91 26.06 -6.21 36.02 -16.35 c 11.41 -11.61 9.83 -10.19 31.59 -15.91 c 0.81 -0.22 1.49 -0.71 2.28 -0.96 l 35.55 87.47 Z m -29.05 -134.99 c -2.25 8.58 -8.84 15.33 -17.22 17.61 c -23.62 6.25 -28.39 6.45 -45.97 24.37 c -8 8.11 -20.19 9.61 -29.75 3.48 c -18.13 -11.44 -41.56 -11.45 -59.69 0.02 c -9.5 6.03 -21.75 4.62 -29.75 -3.52 c -17.38 -17.68 -22.12 -17.95 -45.97 -24.36 c -8.38 -2.28 -14.97 -9.03 -17.22 -17.62 c -8.06 -30.63 -7.53 -30.19 -30.03 -52.87 c -6.19 -6.31 -8.63 -15.62 -6.34 -24.31 c 8.15 -30.47 8.2 -30.48 0 -60.95 c -2.28 -8.69 0.16 -18 6.34 -24.3 c 22.42 -22.7 21.94 -22.06 30.03 -52.91 c 2.25 -8.58 8.84 -15.33 17.22 -17.59 c 30.79 -8.41 29.68 -7.8 52.13 -30.62 c 5.2 -5.31 13.82 -8.96 23.28 -6.41 c 30.46 8.38 29.85 8.4 60.28 0 c 8.19 -2.27 17.19 0.19 23.31 6.37 c 22.29 22.87 21.87 22.44 52.16 30.66 c 8.34 2.27 14.94 9.02 17.19 17.61 c 8.06 30.63 7.53 30.19 30.03 52.87 c 6.19 6.31 8.63 15.62 6.34 24.31 c -8.19 30.52 -8.16 30.54 0 60.95 c 2.28 8.69 -0.16 18 -6.34 24.3 c -22.41 22.71 -21.94 22.06 -30.03 52.91 Z" /></svg>